<svg aria-hidden="true" style="position: absolute; width: 0; height: 0; overflow: hidden;" version="1.1" xmlns="http://www.w3.org/2000/svg" xmlns:xlink="http://www.w3.org/1999/xlink">
<defs>
<symbol id="icon-health" viewBox="0 0 28 28">
<path d="M20 16h4.766c-0.187 0.203-0.313 0.313-0.344 0.344l-9.734 9.375c-0.187 0.187-0.438 0.281-0.688 0.281s-0.5-0.094-0.688-0.281l-9.75-9.406c-0.031-0.016-0.156-0.125-0.328-0.313h5.766c0.453 0 0.859-0.313 0.969-0.75l1.094-4.391 2.969 10.422c0.125 0.422 0.516 0.719 0.969 0.719v0c0.438 0 0.828-0.297 0.953-0.719l2.281-7.578 0.875 1.75c0.172 0.328 0.516 0.547 0.891 0.547zM28 9.312c0 1.797-0.781 3.437-1.609 4.688h-5.766l-1.734-3.453c-0.172-0.359-0.578-0.578-0.969-0.547-0.422 0.047-0.766 0.313-0.875 0.719l-2.016 6.719-3.063-10.719c-0.125-0.422-0.516-0.719-0.984-0.719-0.453 0-0.844 0.313-0.953 0.75l-1.813 7.25h-6.609c-0.828-1.25-1.609-2.891-1.609-4.688 0-4.578 2.797-7.313 7.469-7.313 2.734 0 5.297 2.156 6.531 3.375 1.234-1.219 3.797-3.375 6.531-3.375 4.672 0 7.469 2.734 7.469 7.313z"></path>
</symbol>
<symbol id="icon-heart" viewBox="0 0 28 28">
<path d="M14 26c-0.25 0-0.5-0.094-0.688-0.281l-9.75-9.406c-0.125-0.109-3.563-3.25-3.563-7 0-4.578 2.797-7.313 7.469-7.313 2.734 0 5.297 2.156 6.531 3.375 1.234-1.219 3.797-3.375 6.531-3.375 4.672 0 7.469 2.734 7.469 7.313 0 3.75-3.437 6.891-3.578 7.031l-9.734 9.375c-0.187 0.187-0.438 0.281-0.688 0.281z"></path>
</symbol>
<symbol id="icon-sports" viewBox="0 0 28 28">
<path d="M21 17.5q1.914 0 3.281 1.367t1.367 3.281-1.367 3.309-3.281 1.395-3.281-1.367-1.367-3.336q0-1.914 1.367-3.281t3.281-1.367zM21 19.852q-0.984 0-1.641 0.656-0.711 0.711-0.711 1.641t0.711 1.641 1.641 0.711q0.984 0 1.641-0.656 0.711-0.711 0.711-1.668t-0.711-1.668q-0.656-0.656-1.641-0.656zM12.031 13.617q1.367 1.367 3.691 1.012t4.184-2.215 2.215-4.184-1.012-3.691-3.664-0.984-4.156 2.242-2.242 4.156 0.984 3.664zM22.75 2.898q2.023 2.078 1.695 5.332t-2.898 5.824q-1.367 1.367-3.145 2.16t-3.254 0.793h-1.777t-0.93 0.027-1.012 0.137-0.902 0.273-0.957 0.465-0.82 0.684l-4.922 4.922-1.695-1.641 4.977-4.922q0.383-0.383 0.684-0.82t0.465-0.957 0.273-0.93 0.137-1.039 0.027-0.93v-1.777q0-1.422 0.793-3.199t2.16-3.145q2.57-2.57 5.824-2.953t5.277 1.695z"></path>
</symbol>
<symbol id="icon-alert-circle" viewBox="0 0 28 28">
<path d="M26.833 14c0-3.543-1.437-6.754-3.759-9.074s-5.531-3.759-9.074-3.759-6.754 1.437-9.074 3.759-3.759 5.531-3.759 9.074 1.437 6.754 3.759 9.074 5.531 3.759 9.074 3.759 6.754-1.437 9.074-3.759 3.759-5.531 3.759-9.074zM24.5 14c0 2.9-1.174 5.523-3.075 7.425s-4.524 3.075-7.425 3.075-5.523-1.174-7.425-3.075-3.075-4.524-3.075-7.425 1.174-5.523 3.075-7.425 4.524-3.075 7.425-3.075 5.523 1.174 7.425 3.075 3.075 4.524 3.075 7.425zM12.833 9.333v4.667c0 0.644 0.523 1.167 1.167 1.167s1.167-0.523 1.167-1.167v-4.667c0-0.644-0.523-1.167-1.167-1.167s-1.167 0.523-1.167 1.167zM14 19.833c0.644 0 1.167-0.523 1.167-1.167s-0.523-1.167-1.167-1.167-1.167 0.523-1.167 1.167 0.523 1.167 1.167 1.167z"></path>
</symbol>
<symbol id="icon-alert-triangle" viewBox="0 0 28 28">
<path d="M13.006 5.103c0.085-0.143 0.216-0.282 0.39-0.387 0.275-0.167 0.59-0.208 0.882-0.135s0.553 0.252 0.716 0.523l9.877 16.489c0.082 0.14 0.139 0.313 0.149 0.506-0.017 0.429-0.139 0.689-0.33 0.886-0.21 0.215-0.498 0.348-0.809 0.351l-19.76-0.001c-0.177-0.001-0.374-0.048-0.561-0.156-0.279-0.161-0.466-0.419-0.544-0.708s-0.044-0.606 0.107-0.869zM11.004 3.904l-9.882 16.497c-0.492 0.853-0.59 1.808-0.359 2.672s0.793 1.643 1.631 2.126c0.541 0.313 1.139 0.467 1.721 0.469h19.767c0.979-0.011 1.852-0.413 2.477-1.052s1.008-1.52 0.997-2.486c-0.007-0.625-0.178-1.218-0.474-1.72l-9.886-16.505c-0.504-0.832-1.295-1.378-2.163-1.59s-1.821-0.095-2.647 0.407c-0.5 0.303-0.904 0.717-1.181 1.183zM12.833 10.5v4.667c0 0.644 0.523 1.167 1.167 1.167s1.167-0.523 1.167-1.167v-4.667c0-0.644-0.523-1.167-1.167-1.167s-1.167 0.523-1.167 1.167zM14 21c0.644 0 1.167-0.523 1.167-1.167s-0.523-1.167-1.167-1.167-1.167 0.523-1.167 1.167 0.523 1.167 1.167 1.167z"></path>
</symbol>
<symbol id="icon-edit" viewBox="0 0 28 28">
<path d="M12.833 3.5h-8.167c-0.966 0-1.843 0.393-2.474 1.026s-1.025 1.508-1.025 2.474v16.333c0 0.966 0.393 1.843 1.025 2.474s1.508 1.026 2.474 1.026h16.333c0.966 0 1.843-0.393 2.474-1.026s1.026-1.509 1.026-2.474v-8.167c0-0.644-0.523-1.167-1.167-1.167s-1.167 0.523-1.167 1.167v8.167c0 0.322-0.13 0.612-0.342 0.825s-0.503 0.342-0.825 0.342h-16.333c-0.322 0-0.612-0.13-0.825-0.342s-0.342-0.503-0.342-0.825v-16.333c0-0.322 0.129-0.612 0.342-0.825s0.503-0.342 0.825-0.342h8.167c0.644 0 1.167-0.523 1.167-1.167s-0.523-1.167-1.167-1.167zM20.759 2.092l-11.083 11.083c-0.142 0.141-0.253 0.327-0.307 0.542l-1.167 4.667c-0.045 0.175-0.049 0.371 0 0.566 0.156 0.625 0.79 1.006 1.415 0.849l4.667-1.167c0.195-0.048 0.385-0.151 0.543-0.307l11.083-11.083c0.711-0.71 1.066-1.645 1.066-2.575s-0.356-1.864-1.066-2.575-1.646-1.067-2.576-1.067-1.864 0.356-2.575 1.066zM22.408 3.741c0.256-0.256 0.588-0.383 0.925-0.383s0.67 0.127 0.925 0.383 0.383 0.588 0.383 0.925-0.127 0.67-0.383 0.925l-10.855 10.855-2.466 0.617 0.617-2.466z"></path>
</symbol>
<symbol id="icon-write" viewBox="0 0 28 28">
<path d="M19.009 2.675l-15.75 15.75c-0.137 0.135-0.245 0.313-0.301 0.518l-1.75 6.417c-0.054 0.19-0.057 0.404 0 0.614 0.169 0.622 0.811 0.988 1.433 0.819l6.417-1.75c0.185-0.049 0.367-0.15 0.518-0.301l15.75-15.75c0.872-0.871 1.308-2.017 1.308-3.158s-0.436-2.287-1.308-3.158-2.017-1.308-3.158-1.308-2.287 0.436-3.158 1.308zM20.658 4.325c0.416-0.417 0.961-0.624 1.508-0.624s1.092 0.208 1.509 0.625 0.624 0.96 0.624 1.507-0.208 1.092-0.624 1.508l-15.531 15.531-4.149 1.132 1.132-4.148z"></path>
</symbol>
<symbol id="icon-eye" viewBox="0 0 28 28">
<path d="M0.124 13.479c-0.159 0.32-0.17 0.703 0 1.043 0 0 0.462 0.921 1.307 2.15 0.526 0.765 1.211 1.671 2.050 2.588 1.043 1.142 2.338 2.318 3.872 3.267 1.861 1.15 4.090 1.974 6.648 1.974s4.787-0.824 6.648-1.974c1.534-0.948 2.829-2.125 3.872-3.267 0.838-0.917 1.524-1.822 2.050-2.588 0.845-1.23 1.307-2.15 1.307-2.15 0.159-0.32 0.17-0.704 0-1.043 0 0-0.462-0.921-1.307-2.15-0.526-0.765-1.211-1.671-2.050-2.588-1.043-1.142-2.338-2.318-3.872-3.267-1.861-1.15-4.090-1.974-6.648-1.974s-4.787 0.824-6.648 1.974c-1.534 0.949-2.829 2.125-3.872 3.267-0.839 0.917-1.524 1.821-2.050 2.588-0.845 1.23-1.307 2.15-1.307 2.15zM2.497 14c0.19-0.328 0.475-0.794 0.856-1.351 0.478-0.695 1.097-1.512 1.849-2.334 0.939-1.028 2.071-2.049 3.376-2.856 1.575-0.973 3.385-1.625 5.421-1.625s3.847 0.652 5.42 1.625c1.306 0.807 2.437 1.828 3.376 2.856 0.751 0.822 1.371 1.639 1.849 2.334 0.383 0.556 0.667 1.022 0.856 1.351-0.19 0.328-0.475 0.795-0.856 1.351-0.478 0.695-1.097 1.512-1.849 2.335-0.939 1.028-2.071 2.049-3.376 2.856-1.574 0.973-3.383 1.625-5.42 1.625s-3.847-0.652-5.42-1.625c-1.306-0.807-2.437-1.828-3.376-2.856-0.751-0.823-1.371-1.639-1.849-2.335-0.383-0.556-0.667-1.023-0.857-1.351zM18.667 14c0-1.288-0.524-2.457-1.367-3.299s-2.011-1.367-3.299-1.367-2.457 0.524-3.299 1.367-1.367 2.011-1.367 3.299 0.524 2.457 1.367 3.299 2.011 1.367 3.299 1.367 2.457-0.524 3.299-1.367 1.367-2.011 1.367-3.299zM16.333 14c0 0.645-0.26 1.226-0.684 1.65s-1.005 0.684-1.65 0.684-1.226-0.26-1.65-0.684-0.684-1.005-0.684-1.65 0.26-1.226 0.684-1.65 1.004-0.684 1.65-0.684 1.226 0.26 1.65 0.684 0.684 1.005 0.684 1.65z"></path>
</symbol>
<symbol id="icon-eye-off" viewBox="0 0 28 28">
<path d="M11.816 6.083c0.76-0.177 1.512-0.258 2.17-0.25 2.051 0 3.86 0.652 5.434 1.625 1.306 0.807 2.437 1.828 3.376 2.856 0.751 0.822 1.371 1.639 1.849 2.334 0.381 0.554 0.665 1.020 0.855 1.348-0.637 1.112-1.353 2.124-2.074 2.966-0.419 0.489-0.363 1.226 0.126 1.645s1.226 0.363 1.645-0.126c0.954-1.113 1.879-2.464 2.663-3.932 0.173-0.325 0.19-0.721 0.015-1.072 0 0-0.462-0.921-1.307-2.15-0.526-0.765-1.211-1.671-2.050-2.588-1.043-1.142-2.338-2.318-3.872-3.267-1.861-1.149-4.090-1.973-6.634-1.973-0.856-0.010-1.797 0.092-2.73 0.31-0.628 0.147-1.017 0.775-0.87 1.402s0.775 1.017 1.402 0.87zM11.698 13.349l2.953 2.953c-0.212 0.071-0.434 0.11-0.657 0.118-0.598 0.021-1.202-0.186-1.673-0.625s-0.72-1.027-0.741-1.625c-0.009-0.278 0.029-0.555 0.118-0.821zM6.98 8.63l2.978 2.979c-0.506 0.806-0.742 1.731-0.709 2.644 0.042 1.192 0.54 2.372 1.483 3.249s2.154 1.291 3.346 1.25c0.807-0.028 1.609-0.266 2.315-0.709l2.709 2.709c-1.608 0.932-3.377 1.395-5.115 1.416-2.023 0-3.833-0.652-5.406-1.625-1.306-0.807-2.437-1.828-3.376-2.856-0.751-0.823-1.371-1.639-1.849-2.335-0.38-0.554-0.665-1.019-0.854-1.346 1.225-2.126 2.772-3.942 4.481-5.375zM0.342 1.991l4.983 4.983c-2.019 1.726-3.814 3.918-5.186 6.474-0.173 0.326-0.191 0.722-0.015 1.073 0 0 0.462 0.92 1.307 2.15 0.526 0.765 1.211 1.671 2.050 2.588 1.043 1.142 2.338 2.318 3.872 3.267 1.861 1.15 4.090 1.974 6.662 1.974 2.325-0.028 4.689-0.701 6.784-2.052l5.21 5.21c0.456 0.456 1.195 0.456 1.65 0s0.456-1.195 0-1.65l-10.355-10.355c-0.002-0.002-0.006-0.006-0.008-0.008l-4.911-4.912c-0.009-0.008-0.019-0.019-0.028-0.028l-10.365-10.364c-0.456-0.456-1.195-0.456-1.65 0s-0.456 1.195 0 1.65z"></path>
</symbol>
<symbol id="icon-globe" viewBox="0 0 28 28">
<path d="M19.776 12.833c-0.25-3.138-1.286-6.245-3.12-8.995 1.832 0.477 3.468 1.437 4.768 2.737 1.643 1.643 2.743 3.824 3.011 6.258zM16.659 24.16c1.73-2.597 2.843-5.662 3.114-8.994h4.663c-0.268 2.434-1.368 4.615-3.011 6.258-1.298 1.299-2.935 2.259-4.766 2.736zM8.224 15.167c0.25 3.138 1.286 6.245 3.12 8.995-1.832-0.477-3.469-1.437-4.768-2.737-1.643-1.643-2.743-3.824-3.011-6.258zM11.341 3.84c-1.729 2.597-2.842 5.662-3.114 8.994h-4.663c0.268-2.434 1.369-4.615 3.011-6.258 1.3-1.298 2.935-2.259 4.766-2.736zM14.005 1.167c0 0 0 0 0 0-3.551 0.001-6.76 1.439-9.079 3.759-2.322 2.321-3.759 5.531-3.759 9.074s1.437 6.754 3.759 9.074c2.319 2.32 5.528 3.758 9.070 3.759 0 0 0 0 0 0 3.551-0.001 6.759-1.439 9.079-3.759 2.322-2.321 3.759-5.531 3.759-9.074s-1.437-6.754-3.759-9.074c-2.319-2.32-5.528-3.758-9.070-3.759zM17.437 15.167c-0.294 3.253-1.535 6.253-3.436 8.693-2.017-2.591-3.157-5.621-3.436-8.693zM13.999 4.141c2.017 2.591 3.157 5.621 3.436 8.693h-6.872c0.294-3.253 1.535-6.253 3.436-8.693z"></path>
</symbol>
<symbol id="icon-menu" viewBox="0 0 28 28">
<path d="M3.5 15.167h21c0.644 0 1.167-0.523 1.167-1.167s-0.523-1.167-1.167-1.167h-21c-0.644 0-1.167 0.523-1.167 1.167s0.523 1.167 1.167 1.167zM3.5 8.167h21c0.644 0 1.167-0.523 1.167-1.167s-0.523-1.167-1.167-1.167h-21c-0.644 0-1.167 0.523-1.167 1.167s0.523 1.167 1.167 1.167zM3.5 22.167h21c0.644 0 1.167-0.523 1.167-1.167s-0.523-1.167-1.167-1.167h-21c-0.644 0-1.167 0.523-1.167 1.167s0.523 1.167 1.167 1.167z"></path>
</symbol>
<symbol id="icon-message" viewBox="0 0 28 28">
<path d="M25.667 17.5v-11.667c0-0.966-0.393-1.843-1.026-2.474s-1.508-1.026-2.474-1.026h-16.333c-0.966 0-1.843 0.393-2.474 1.026s-1.026 1.508-1.026 2.474v18.667c0 0.299 0.114 0.597 0.342 0.825 0.456 0.456 1.195 0.456 1.65 0l4.325-4.325h13.517c0.966 0 1.843-0.393 2.474-1.026s1.026-1.508 1.026-2.474zM23.333 17.5c0 0.322-0.13 0.613-0.342 0.825s-0.503 0.342-0.825 0.342h-14c-0.322 0-0.614 0.131-0.825 0.342l-2.675 2.675v-15.85c0-0.322 0.129-0.612 0.342-0.825s0.503-0.342 0.825-0.342h16.333c0.322 0 0.613 0.129 0.825 0.342s0.342 0.503 0.342 0.825z"></path>
</symbol>
<symbol id="icon-play" viewBox="0 0 28 28">
<path d="M6.465 2.519c-0.178-0.117-0.397-0.186-0.631-0.186-0.644 0-1.167 0.523-1.167 1.167v21c-0.001 0.212 0.058 0.434 0.185 0.631 0.349 0.543 1.070 0.699 1.612 0.35l16.333-10.5c0.133-0.084 0.256-0.203 0.35-0.35 0.349-0.543 0.191-1.263-0.35-1.612zM7 5.637l13.010 8.363-13.010 8.363z"></path>
</symbol>
<symbol id="icon-search" viewBox="0 0 28 28">
<path d="M18.715 18.499c-0.040 0.030-0.078 0.064-0.116 0.102s-0.070 0.075-0.101 0.116c-1.468 1.415-3.464 2.284-5.664 2.284-2.255 0-4.296-0.912-5.775-2.392s-2.392-3.52-2.392-5.775 0.912-4.296 2.392-5.775 3.52-2.392 5.775-2.392 4.296 0.912 5.775 2.392 2.392 3.52 2.392 5.775c0 2.2-0.869 4.197-2.286 5.665zM25.325 23.675l-4.287-4.287c1.436-1.797 2.296-4.075 2.296-6.554 0-2.899-1.176-5.525-3.075-7.425s-4.526-3.075-7.425-3.075-5.525 1.176-7.425 3.075-3.075 4.526-3.075 7.425 1.176 5.525 3.075 7.425 4.526 3.075 7.425 3.075c2.479 0 4.758-0.86 6.554-2.296l4.288 4.288c0.456 0.456 1.195 0.456 1.65 0s0.456-1.195 0-1.65z"></path>
</symbol>
<symbol id="icon-send" viewBox="0 0 28 28">
<path d="M26.79 2.647c0.050-0.176 0.058-0.366 0.017-0.555-0.028-0.132-0.079-0.261-0.153-0.379-0.075-0.119-0.169-0.222-0.278-0.306-0.136-0.105-0.291-0.175-0.45-0.211s-0.329-0.040-0.497-0.005c-0.049 0.010-0.099 0.024-0.147 0.041l-0.024 0.008-23.31 8.159c-0.294 0.103-0.545 0.322-0.681 0.628-0.261 0.589 0.003 1.279 0.593 1.54l10.090 4.485 4.485 10.090c0.126 0.284 0.365 0.517 0.68 0.628 0.608 0.212 1.274-0.107 1.486-0.716l8.159-23.309c0.012-0.031 0.022-0.063 0.032-0.096zM12.575 13.775l-7.079-3.145 15.73-5.507zM22.877 6.774l-5.507 15.73-3.145-7.079z"></path>
</symbol>
<symbol id="icon-settings" viewBox="0 0 28 28">
<path d="M18.667 14c0-1.288-0.524-2.457-1.367-3.299s-2.011-1.367-3.299-1.367-2.457 0.524-3.299 1.367-1.367 2.011-1.367 3.299 0.524 2.457 1.367 3.299 2.011 1.367 3.299 1.367 2.457-0.524 3.299-1.367 1.367-2.011 1.367-3.299zM16.333 14c0 0.645-0.26 1.226-0.684 1.65s-1.005 0.684-1.65 0.684-1.226-0.26-1.65-0.684-0.684-1.005-0.684-1.65 0.26-1.226 0.684-1.65 1.004-0.684 1.65-0.684 1.226 0.26 1.65 0.684 0.684 1.005 0.684 1.65zM23.701 17.971c0.054-0.122 0.131-0.223 0.224-0.3 0.131-0.107 0.293-0.17 0.47-0.172h0.105c0.966 0 1.843-0.393 2.474-1.026s1.025-1.508 1.025-2.474-0.393-1.843-1.026-2.474-1.508-1.026-2.474-1.026h-0.186c-0.128-0.001-0.251-0.033-0.359-0.089-0.148-0.077-0.268-0.201-0.341-0.364-0.004-0.034-0.005-0.069-0.005-0.104-0.028-0.064-0.047-0.13-0.057-0.196 0.023-0.39 0.090-0.53 0.196-0.638l0.072-0.072c0.683-0.684 1.024-1.582 1.023-2.476s-0.343-1.792-1.028-2.476c-0.684-0.683-1.582-1.024-2.476-1.023s-1.792 0.343-2.473 1.026l-0.054 0.054c-0.097 0.093-0.213 0.159-0.336 0.194-0.163 0.045-0.34 0.037-0.511-0.038-0.118-0.051-0.218-0.128-0.295-0.222-0.107-0.131-0.17-0.293-0.171-0.47v-0.105c0-0.966-0.393-1.843-1.026-2.474s-1.509-1.025-2.475-1.025-1.843 0.393-2.474 1.025-1.026 1.508-1.026 2.474v0.185c-0.001 0.128-0.033 0.251-0.089 0.359-0.077 0.148-0.201 0.268-0.364 0.341-0.034 0.003-0.069 0.005-0.104 0.005-0.064 0.028-0.13 0.047-0.196 0.057-0.391-0.024-0.531-0.091-0.639-0.197l-0.072-0.072c-0.684-0.683-1.581-1.024-2.476-1.024s-1.791 0.343-2.476 1.029c-0.683 0.684-1.024 1.581-1.024 2.476s0.343 1.792 1.026 2.473l0.056 0.055c0.093 0.097 0.159 0.213 0.194 0.336 0.045 0.163 0.037 0.339-0.036 0.506-0.007 0.019-0.015 0.040-0.024 0.061-0.048 0.127-0.126 0.237-0.223 0.321-0.128 0.111-0.292 0.179-0.447 0.182h-0.105c-0.966 0-1.843 0.393-2.474 1.026s-1.025 1.51-1.025 2.476 0.393 1.843 1.025 2.475 1.508 1.026 2.474 1.026h0.185c0.128 0.001 0.251 0.033 0.359 0.089 0.149 0.078 0.272 0.203 0.345 0.375 0.028 0.064 0.047 0.13 0.057 0.196-0.023 0.39-0.090 0.53-0.196 0.638l-0.072 0.072c-0.683 0.684-1.024 1.582-1.023 2.476s0.343 1.792 1.028 2.476c0.684 0.683 1.582 1.024 2.476 1.023s1.792-0.343 2.473-1.025l0.055-0.056c0.097-0.093 0.213-0.159 0.336-0.194 0.163-0.046 0.34-0.037 0.506 0.036 0.019 0.007 0.040 0.015 0.061 0.024 0.127 0.048 0.237 0.126 0.321 0.223 0.111 0.128 0.178 0.292 0.182 0.447v0.107c0 0.966 0.393 1.843 1.026 2.474s1.509 1.026 2.474 1.026 1.843-0.393 2.474-1.026 1.026-1.508 1.026-2.474v-0.185c0.001-0.128 0.033-0.251 0.089-0.359 0.078-0.149 0.203-0.272 0.374-0.345 0.064-0.028 0.13-0.047 0.196-0.057 0.39 0.023 0.53 0.090 0.638 0.196l0.072 0.072c0.684 0.683 1.582 1.024 2.476 1.023s1.792-0.343 2.476-1.028c0.683-0.684 1.024-1.582 1.023-2.476s-0.343-1.792-1.026-2.473l-0.056-0.055c-0.093-0.097-0.159-0.213-0.194-0.336-0.046-0.163-0.037-0.34 0.036-0.506zM21.462 10.852c-0.014-0.235-0.044-0.346-0.089-0.446v0.093c0 0.050 0.004 0.098 0.009 0.146 0.024 0.070 0.050 0.139 0.079 0.207 0.005 0.105 0.006 0.106 0.006 0.107 0.291 0.678 0.798 1.202 1.409 1.52 0.433 0.225 0.916 0.348 1.413 0.353h0.21c0.322 0 0.612 0.13 0.825 0.342s0.342 0.503 0.342 0.825-0.13 0.613-0.342 0.825-0.503 0.342-0.825 0.342h-0.105c-0.743 0.004-1.423 0.266-1.954 0.704-0.377 0.31-0.678 0.708-0.875 1.159-0.3 0.679-0.336 1.412-0.148 2.079 0.139 0.494 0.398 0.95 0.761 1.325l0.084 0.085c0.229 0.229 0.343 0.525 0.343 0.825s-0.113 0.597-0.341 0.825c-0.23 0.23-0.526 0.344-0.827 0.344s-0.597-0.113-0.825-0.341l-0.071-0.071c-0.54-0.529-1.213-0.819-1.904-0.877-0.51-0.043-1.029 0.040-1.509 0.247-0.674 0.289-1.198 0.797-1.517 1.407-0.225 0.433-0.348 0.916-0.354 1.413v0.211c0 0.322-0.129 0.612-0.342 0.825s-0.502 0.341-0.824 0.341-0.613-0.129-0.825-0.342-0.342-0.503-0.342-0.825v-0.105c-0.017-0.77-0.297-1.449-0.751-1.974-0.331-0.383-0.754-0.683-1.234-0.868-0.671-0.288-1.392-0.32-2.049-0.135-0.493 0.139-0.95 0.398-1.325 0.761l-0.085 0.084c-0.229 0.229-0.525 0.343-0.825 0.343s-0.597-0.113-0.825-0.341c-0.23-0.23-0.344-0.526-0.344-0.827s0.113-0.597 0.341-0.825l0.071-0.071c0.529-0.54 0.819-1.213 0.877-1.904 0.043-0.51-0.040-1.029-0.247-1.509-0.289-0.674-0.797-1.198-1.407-1.517-0.433-0.225-0.916-0.348-1.413-0.353l-0.21 0.001c-0.322 0-0.613-0.13-0.825-0.342s-0.342-0.503-0.342-0.825 0.13-0.613 0.342-0.825 0.503-0.342 0.825-0.342h0.105c0.77-0.018 1.449-0.297 1.974-0.751 0.383-0.331 0.683-0.754 0.868-1.234 0.288-0.671 0.32-1.392 0.135-2.049-0.139-0.494-0.398-0.95-0.761-1.325l-0.085-0.085c-0.229-0.229-0.343-0.525-0.343-0.825s0.113-0.597 0.341-0.825c0.23-0.23 0.526-0.344 0.827-0.344s0.597 0.113 0.825 0.341l0.071 0.071c0.54 0.529 1.213 0.819 1.904 0.877 0.432 0.037 0.869-0.016 1.285-0.16 0.112-0.014 0.217-0.042 0.31-0.084-0.036 0.001-0.071 0.003-0.104 0.005-0.235 0.014-0.347 0.044-0.446 0.089h0.093c0.050 0 0.098-0.003 0.146-0.009 0.070-0.024 0.139-0.050 0.207-0.079 0.105-0.005 0.106-0.006 0.107-0.006 0.678-0.29 1.202-0.798 1.52-1.409 0.225-0.432 0.348-0.916 0.354-1.412v-0.211c0-0.322 0.13-0.613 0.342-0.825s0.503-0.342 0.825-0.342 0.613 0.13 0.825 0.342 0.342 0.503 0.342 0.825v0.105c0.004 0.743 0.266 1.423 0.703 1.954 0.31 0.377 0.708 0.678 1.162 0.876 0.674 0.298 1.407 0.334 2.074 0.146 0.493-0.139 0.95-0.398 1.325-0.761l0.085-0.084c0.229-0.229 0.525-0.343 0.825-0.343s0.597 0.113 0.825 0.341c0.23 0.23 0.344 0.526 0.344 0.827s-0.113 0.597-0.341 0.825l-0.071 0.071c-0.529 0.54-0.819 1.213-0.877 1.904-0.037 0.432 0.016 0.869 0.16 1.284 0.014 0.111 0.043 0.216 0.084 0.31-0.001-0.037-0.002-0.072-0.005-0.104z"></path>
</symbol>
<symbol id="icon-trash" viewBox="0 0 28 28">
<path d="M21 8.167v15.167c0 0.322-0.13 0.612-0.342 0.825s-0.503 0.342-0.825 0.342h-11.667c-0.322 0-0.612-0.13-0.825-0.342s-0.342-0.503-0.342-0.825v-15.167zM19.833 5.833v-1.167c0-0.966-0.393-1.843-1.026-2.474s-1.509-1.026-2.474-1.026h-4.667c-0.966 0-1.843 0.393-2.474 1.026s-1.026 1.508-1.026 2.474v1.167h-4.667c-0.644 0-1.167 0.523-1.167 1.167s0.523 1.167 1.167 1.167h1.167v15.167c0 0.966 0.393 1.843 1.026 2.474s1.508 1.026 2.474 1.026h11.667c0.966 0 1.843-0.393 2.474-1.026s1.026-1.509 1.026-2.474v-15.167h1.167c0.644 0 1.167-0.523 1.167-1.167s-0.523-1.167-1.167-1.167zM10.5 5.833v-1.167c0-0.322 0.13-0.613 0.342-0.825s0.503-0.342 0.825-0.342h4.667c0.322 0 0.612 0.129 0.825 0.342s0.342 0.503 0.342 0.825v1.167z"></path>
</symbol>
<symbol id="icon-trending-up" viewBox="0 0 28 28">
<path d="M19.833 8.167h4.184l-8.267 8.267-5.008-5.009c-0.456-0.456-1.195-0.456-1.65 0l-8.75 8.75c-0.456 0.456-0.456 1.195 0 1.65s1.195 0.456 1.65 0l7.925-7.925 5.009 5.009c0.456 0.456 1.195 0.456 1.65 0l9.092-9.092v4.184c0 0.644 0.523 1.167 1.167 1.167s1.167-0.523 1.167-1.167v-7c0-0.159-0.032-0.309-0.089-0.447s-0.141-0.266-0.252-0.377c-0.001-0.001-0.001-0.001-0.002-0.002-0.107-0.107-0.236-0.194-0.377-0.252-0.138-0.057-0.288-0.089-0.447-0.089h-7c-0.644 0-1.167 0.523-1.167 1.167s0.523 1.167 1.167 1.167z"></path>
</symbol>
<symbol id="icon-user" viewBox="0 0 28 28">
<path d="M24.5 24.5v-2.333c0-1.61-0.655-3.071-1.708-4.125s-2.515-1.708-4.125-1.708h-9.333c-1.61 0-3.071 0.654-4.125 1.708s-1.708 2.515-1.708 4.125v2.333c0 0.644 0.523 1.167 1.167 1.167s1.167-0.523 1.167-1.167v-2.333c0-0.967 0.391-1.84 1.026-2.474s1.507-1.026 2.474-1.026h9.333c0.967 0 1.84 0.391 2.474 1.026s1.026 1.507 1.026 2.474v2.333c0 0.644 0.523 1.167 1.167 1.167s1.167-0.523 1.167-1.167zM19.833 8.167c0-1.61-0.655-3.071-1.708-4.125s-2.515-1.708-4.125-1.708-3.071 0.655-4.125 1.708-1.708 2.515-1.708 4.125 0.654 3.071 1.708 4.125 2.515 1.708 4.125 1.708 3.071-0.654 4.125-1.708 1.708-2.515 1.708-4.125zM17.5 8.167c0 0.967-0.391 1.84-1.026 2.474s-1.507 1.026-2.474 1.026-1.84-0.391-2.474-1.026-1.026-1.507-1.026-2.474 0.391-1.84 1.026-2.474 1.507-1.025 2.474-1.025 1.84 0.391 2.474 1.025 1.026 1.507 1.026 2.474z"></path>
</symbol>
<symbol id="icon-home" viewBox="0 0 28 28">
<path d="M2.784 9.579c-0.275 0.215-0.45 0.547-0.45 0.921v12.833c0 0.966 0.393 1.843 1.026 2.475s1.508 1.025 2.474 1.025h16.333c0.966 0 1.843-0.393 2.474-1.025s1.026-1.509 1.026-2.475v-12.833c-0.001-0.35-0.156-0.692-0.45-0.921l-10.5-8.167c-0.418-0.321-1.005-0.333-1.433 0zM18.667 24.5v-10.5c0-0.644-0.523-1.167-1.167-1.167h-7c-0.644 0-1.167 0.523-1.167 1.167v10.5h-3.5c-0.322 0-0.612-0.13-0.825-0.342s-0.342-0.503-0.342-0.825v-12.263l9.333-7.259 9.333 7.259v12.263c0 0.322-0.129 0.612-0.342 0.825s-0.503 0.342-0.825 0.342zM11.667 24.5v-9.333h4.667v9.333z"></path>
</symbol>

<symbol id="icon-document" viewBox="0 0 32 32">
<path d="M31.552 25.751h-3.461v-19.868c0-2.361-1.913-4.275-4.275-4.275h-19.542c-2.361 0-4.275 1.913-4.275 4.275 0 0.244 0.163 0.407 0.407 0.407h7.369v19.827c0 0.041 0 0.081 0.041 0.122 0.081 2.321 1.954 4.153 4.275 4.153h15.634c2.361 0 4.275-1.913 4.275-4.275-0.041-0.204-0.204-0.366-0.448-0.366zM0.774 5.476c0.204-1.71 1.669-3.053 3.461-3.053s3.257 1.344 3.461 3.053h-6.921zM12.051 29.618c-1.914 0-3.461-1.547-3.461-3.461v0-20.112c0-0.041 0-0.041 0-0.081s0-0.041 0-0.081c0-1.425-0.692-2.687-1.791-3.461h17.018c1.913 0 3.461 1.547 3.461 3.461v19.827h-11.359c-0.244 0-0.407 0.163-0.407 0.407 0 1.954-1.547 3.501-3.461 3.501zM27.684 29.618h-13.15c0.977-0.692 1.628-1.791 1.751-3.053h14.819c-0.163 1.71-1.669 3.053-3.42 3.053z"></path>
<path d="M11.725 8.204h13.028c0.244 0 0.407-0.163 0.407-0.407s-0.163-0.407-0.407-0.407h-13.028c-0.244 0-0.407 0.163-0.407 0.407s0.204 0.407 0.407 0.407z"></path>
<path d="M11.725 11.746h13.028c0.244 0 0.407-0.163 0.407-0.407s-0.163-0.407-0.407-0.407h-13.028c-0.244 0-0.407 0.163-0.407 0.407s0.204 0.407 0.407 0.407z"></path>
<path d="M11.725 15.328h13.028c0.244 0 0.407-0.163 0.407-0.407s-0.163-0.407-0.407-0.407h-13.028c-0.244 0-0.407 0.163-0.407 0.407s0.204 0.407 0.407 0.407z"></path>
<path d="M11.725 18.87h13.028c0.244 0 0.407-0.163 0.407-0.407s-0.163-0.407-0.407-0.407h-13.028c-0.244 0-0.407 0.163-0.407 0.407s0.204 0.407 0.407 0.407z"></path>
<path d="M21.252 22.046c0-0.244-0.163-0.407-0.407-0.407h-9.12c-0.244 0-0.407 0.163-0.407 0.407s0.163 0.407 0.407 0.407h9.12c0.244 0 0.407-0.204 0.407-0.407z"></path>
</symbol>
<symbol id="icon-mail" viewBox="0 0 32 32">
<path d="M4 10.561l11.236 7.865c0.453 0.313 1.060 0.328 1.529 0l11.235-7.865v13.439c0 0.363-0.147 0.695-0.393 0.94s-0.577 0.393-0.94 0.393h-21.333c-0.363 0-0.695-0.147-0.94-0.393s-0.393-0.577-0.393-0.94zM1.333 7.977c0 0.013 0 0.027 0 0.040v15.983c0 1.104 0.453 2.105 1.173 2.827s1.723 1.173 2.827 1.173h21.333c1.104 0 2.105-0.453 2.827-1.173s1.173-1.723 1.173-2.827v-15.984c0-0.013 0-0.027 0-0.040-0.007-1.095-0.457-2.087-1.173-2.803-0.721-0.72-1.723-1.173-2.827-1.173h-21.333c-1.104 0-2.105 0.453-2.827 1.173-0.716 0.716-1.167 1.708-1.173 2.804zM27.859 7.405l-11.859 8.3-11.859-8.3c0.064-0.128 0.149-0.244 0.251-0.345 0.247-0.247 0.579-0.393 0.941-0.393h21.333c0.363 0 0.695 0.147 0.94 0.393 0.101 0.101 0.187 0.219 0.251 0.345z"></path>
</symbol>
</defs>
</svg>
